<svg width="19" height="13" viewBox="0 0 19 13" fill="none" xmlns="http://www.w3.org/2000/svg">
<path d="M13.375 1.65895C12.232 1.31015 10.8595 1.07739 9.25 1.07739C7.64125 1.07739 6.268 1.31015 5.125 1.65895M13.375 1.65895C15.6407 2.34964 17.0012 3.49619 17.5 4.1855L15.625 5.91222L13.375 4.53084V1.65895ZM5.125 1.65895C2.85925 2.34964 1.49875 3.49619 1 4.1855L2.875 5.91222L5.125 4.53084V1.65895Z" stroke="#006633" stroke-width="2" stroke-linecap="round" stroke-linejoin="round"/>
<path fill-rule="evenodd" clip-rule="evenodd" d="M7.75 2.45877C7.94891 2.45877 8.13968 2.53154 8.28033 2.66107C8.42098 2.7906 8.5 2.96628 8.5 3.14946V4.53084H10V3.14946C10 2.96628 10.079 2.7906 10.2197 2.66107C10.3603 2.53154 10.5511 2.45877 10.75 2.45877C10.9489 2.45877 11.1397 2.53154 11.2803 2.66107C11.421 2.7906 11.5 2.96628 11.5 3.14946V4.93558L15.3407 8.47261C15.7627 8.8611 15.9999 9.38806 16 9.93756V10.747C16 11.2966 15.7629 11.8236 15.341 12.2122C14.919 12.6008 14.3467 12.8191 13.75 12.8191H4.75C4.15326 12.8191 3.58097 12.6008 3.15901 12.2122C2.73705 11.8236 2.5 11.2966 2.5 10.747V9.93756C2.50033 9.3883 2.73745 8.86163 3.15925 8.4733L7 4.93489V3.14946C7 2.96628 7.07902 2.7906 7.21967 2.66107C7.36032 2.53154 7.55109 2.45877 7.75 2.45877ZM9.25 10.0564C9.64782 10.0564 10.0294 9.91082 10.3107 9.65176C10.592 9.3927 10.75 9.04134 10.75 8.67498C10.75 8.30861 10.592 7.95725 10.3107 7.6982C10.0294 7.43914 9.64782 7.2936 9.25 7.2936C8.85218 7.2936 8.47064 7.43914 8.18934 7.6982C7.90804 7.95725 7.75 8.30861 7.75 8.67498C7.75 9.04134 7.90804 9.3927 8.18934 9.65176C8.47064 9.91082 8.85218 10.0564 9.25 10.0564Z" fill="#006633"/>
</svg>
