<svg width="19" height="14" viewBox="0 0 19 14" fill="none" xmlns="http://www.w3.org/2000/svg">
<path d="M13.375 2.48327C12.232 2.14027 10.8595 1.91138 9.25 1.91138C7.64125 1.91138 6.268 2.14027 5.125 2.48327M13.375 2.48327C15.6407 3.16247 17.0012 4.28995 17.5 4.9678L15.625 6.66581L13.375 5.3074V2.48327ZM5.125 2.48327C2.85925 3.16247 1.49875 4.28995 1 4.9678L2.875 6.66581L5.125 5.3074V2.48327Z" stroke="#006633" stroke-width="2" stroke-linecap="round" stroke-linejoin="round"/>
<path fill-rule="evenodd" clip-rule="evenodd" d="M7.75 3.26978C7.94891 3.26978 8.13968 3.34133 8.28033 3.46871C8.42098 3.59609 8.5 3.76884 8.5 3.94898V5.30739H10V3.94898C10 3.76884 10.079 3.59609 10.2197 3.46871C10.3603 3.34133 10.5511 3.26978 10.75 3.26978C10.9489 3.26978 11.1397 3.34133 11.2803 3.46871C11.421 3.59609 11.5 3.76884 11.5 3.94898V5.7054L15.3407 9.18361C15.7627 9.56564 15.9999 10.0838 16 10.6242V11.4202C16 11.9606 15.7629 12.4789 15.341 12.861C14.919 13.2432 14.3467 13.4578 13.75 13.4578H4.75C4.15326 13.4578 3.58097 13.2432 3.15901 12.861C2.73705 12.4789 2.5 11.9606 2.5 11.4202V10.6242C2.50033 10.0841 2.73745 9.56616 3.15925 9.18429L7 5.70472V3.94898C7 3.76884 7.07902 3.59609 7.21967 3.46871C7.36032 3.34133 7.55109 3.26978 7.75 3.26978ZM9.25 10.741C9.64782 10.741 10.0294 10.5979 10.3107 10.3432C10.592 10.0884 10.75 9.74289 10.75 9.38261C10.75 9.02234 10.592 8.67683 10.3107 8.42207C10.0294 8.16732 9.64782 8.02421 9.25 8.02421C8.85218 8.02421 8.47064 8.16732 8.18934 8.42207C7.90804 8.67683 7.75 9.02234 7.75 9.38261C7.75 9.74289 7.90804 10.0884 8.18934 10.3432C8.47064 10.5979 8.85218 10.741 9.25 10.741Z" fill="#006633"/>
</svg>
