<svg width="19" height="14" viewBox="0 0 19 14" fill="none" xmlns="http://www.w3.org/2000/svg">
<path d="M13.375 1.84205C12.232 1.48579 10.8595 1.24805 9.25 1.24805C7.64125 1.24805 6.268 1.48579 5.125 1.84205M13.375 1.84205C15.6407 2.54752 17.0012 3.71859 17.5 4.42265L15.625 6.18631L13.375 4.77538V1.84205ZM5.125 1.84205C2.85925 2.54752 1.49875 3.71859 1 4.42265L2.875 6.18631L5.125 4.77538V1.84205Z" stroke="#006633" stroke-width="2" stroke-linecap="round" stroke-linejoin="round"/>
<path fill-rule="evenodd" clip-rule="evenodd" d="M7.75 2.65894C7.94891 2.65894 8.13968 2.73326 8.28033 2.86556C8.42098 2.99786 8.5 3.1773 8.5 3.3644V4.77534H10V3.3644C10 3.1773 10.079 2.99786 10.2197 2.86556C10.3603 2.73326 10.5511 2.65894 10.75 2.65894C10.9489 2.65894 11.1397 2.73326 11.2803 2.86556C11.421 2.99786 11.5 3.1773 11.5 3.3644V5.18874L15.3407 8.80143C15.7627 9.19824 15.9999 9.73647 16 10.2977V11.1245C16 11.6858 15.7629 12.2242 15.341 12.6211C14.919 13.018 14.3467 13.2409 13.75 13.2409H4.75C4.15326 13.2409 3.58097 13.018 3.15901 12.6211C2.73705 12.2242 2.5 11.6858 2.5 11.1245V10.2977C2.50033 9.73671 2.73745 9.19878 3.15925 8.80214L7 5.18803V3.3644C7 3.1773 7.07902 2.99786 7.21967 2.86556C7.36032 2.73326 7.55109 2.65894 7.75 2.65894ZM9.25 10.4191C9.64782 10.4191 10.0294 10.2704 10.3107 10.0058C10.592 9.74121 10.75 9.38234 10.75 9.00814C10.75 8.63393 10.592 8.27506 10.3107 8.01046C10.0294 7.74585 9.64782 7.5972 9.25 7.5972C8.85218 7.5972 8.47064 7.74585 8.18934 8.01046C7.90804 8.27506 7.75 8.63393 7.75 9.00814C7.75 9.38234 7.90804 9.74121 8.18934 10.0058C8.47064 10.2704 8.85218 10.4191 9.25 10.4191Z" fill="#006633"/>
</svg>
