<svg width="18" height="18" viewBox="0 0 18 18" fill="none" xmlns="http://www.w3.org/2000/svg">
<path d="M11.685 12.6L9 10.875L6.315 12.6L7.125 9.51L4.6575 7.5L7.845 7.305L9 4.35L10.155 7.305L13.3425 7.5L10.875 9.51M15 9C15 8.60218 15.158 8.22064 15.4393 7.93934C15.7206 7.65804 16.1022 7.5 16.5 7.5V4.5C16.5 4.10218 16.342 3.72064 16.0607 3.43934C15.7794 3.15804 15.3978 3 15 3H3C2.60218 3 2.22064 3.15804 1.93934 3.43934C1.65804 3.72064 1.5 4.10218 1.5 4.5V7.5C1.89782 7.5 2.27936 7.65804 2.56066 7.93934C2.84196 8.22064 3 8.60218 3 9C3 9.39782 2.84196 9.77936 2.56066 10.0607C2.27936 10.342 1.89782 10.5 1.5 10.5V13.5C1.5 13.8978 1.65804 14.2794 1.93934 14.5607C2.22064 14.842 2.60218 15 3 15H15C15.3978 15 15.7794 14.842 16.0607 14.5607C16.342 14.2794 16.5 13.8978 16.5 13.5V10.5C16.1022 10.5 15.7206 10.342 15.4393 10.0607C15.158 9.77936 15 9.39782 15 9Z" fill="#006633"/>
</svg>
