<svg width="21" height="20" viewBox="0 0 21 20" fill="none" xmlns="http://www.w3.org/2000/svg">
<path d="M10.5 9.58334C9.91984 9.58334 9.36344 9.36384 8.9532 8.97314C8.54297 8.58244 8.3125 8.05254 8.3125 7.50001C8.3125 6.94747 8.54297 6.41757 8.9532 6.02687C9.36344 5.63617 9.91984 5.41667 10.5 5.41667C11.0802 5.41667 11.6366 5.63617 12.0468 6.02687C12.457 6.41757 12.6875 6.94747 12.6875 7.50001C12.6875 7.77359 12.6309 8.0445 12.521 8.29726C12.4111 8.55002 12.2499 8.77969 12.0468 8.97314C11.8437 9.1666 11.6025 9.32006 11.3371 9.42475C11.0717 9.52945 10.7873 9.58334 10.5 9.58334ZM10.5 1.66667C8.87555 1.66667 7.31763 2.28125 6.16897 3.37522C5.02031 4.46918 4.375 5.95291 4.375 7.50001C4.375 11.875 10.5 18.3333 10.5 18.3333C10.5 18.3333 16.625 11.875 16.625 7.50001C16.625 5.95291 15.9797 4.46918 14.831 3.37522C13.6824 2.28125 12.1245 1.66667 10.5 1.66667Z" fill="#006633"/>
</svg>
