<svg width="20" height="20" viewBox="0 0 20 20" fill="none" xmlns="http://www.w3.org/2000/svg">
<g clip-path="url(#clip0_795_187)">
<path d="M10 1.66667C14.6025 1.66667 18.3334 5.39751 18.3334 10C18.3334 14.6025 14.6025 18.3333 10 18.3333C5.39752 18.3333 1.66669 14.6025 1.66669 10C1.66669 5.39751 5.39752 1.66667 10 1.66667ZM10 5.00001C9.77901 5.00001 9.56705 5.0878 9.41077 5.24408C9.25448 5.40036 9.16669 5.61232 9.16669 5.83334V10C9.16673 10.221 9.25456 10.4329 9.41085 10.5892L11.9109 13.0892C12.068 13.241 12.2785 13.325 12.497 13.3231C12.7155 13.3212 12.9245 13.2335 13.079 13.079C13.2335 12.9245 13.3212 12.7155 13.3231 12.497C13.325 12.2785 13.241 12.068 13.0892 11.9108L10.8334 9.65501V5.83334C10.8334 5.61232 10.7456 5.40036 10.5893 5.24408C10.433 5.0878 10.221 5.00001 10 5.00001Z" fill="#006633"/>
</g>
<defs>
<clipPath id="clip0_795_187">
<rect width="20" height="20" fill="white"/>
</clipPath>
</defs>
</svg>
